<svg width="620" height="640" viewBox="0 0 620 640" fill="none" xmlns="http://www.w3.org/2000/svg">
  <defs>
    <linearGradient id="bg" x1="0" y1="0" x2="620" y2="640"><stop stop-color="#FFE9B9"/><stop offset="1" stop-color="#D7E9F7"/></linearGradient>
    <linearGradient id="glass" x1="0" y1="0" x2="0" y2="640"><stop stop-color="#fff" stop-opacity="0.75"/><stop offset="1" stop-color="#fff" stop-opacity="0.05"/></linearGradient>
    <clipPath id="clip"><rect width="620" height="640" rx="10"/></clipPath>
  </defs>
  <g clip-path="url(#clip)">
    <rect width="620" height="640" fill="url(#bg)"/>
    <rect width="620" height="640" fill="#EAF2F8" opacity="0.25"/>
    <path d="M0 0H620V110H0V0Z" fill="url(#glass)"/>
    <rect x="48" y="76" width="524" height="30" rx="15" fill="#F8FBFD" opacity="0.8"/>
    <rect x="50" y="120" width="120" height="480" fill="#C8D7DD" opacity="0.35"/>
    <rect x="480" y="120" width="90" height="480" fill="#C8D7DD" opacity="0.35"/>
    <circle cx="266" cy="270" r="74" fill="#F7F7F7" stroke="#D1DCE5" stroke-width="6"/>
    <rect x="206" y="350" width="122" height="185" rx="55" fill="#F7F7F7" stroke="#D1DCE5" stroke-width="6"/>
    <circle cx="242" cy="260" r="9" fill="#41566B"/><circle cx="290" cy="260" r="9" fill="#41566B"/>
    <path d="M245 298C259 308 277 308 290 298" stroke="#41566B" stroke-width="5" stroke-linecap="round"/>
    <rect x="194" y="214" width="22" height="78" rx="11" fill="#8EB3CC"/><rect x="316" y="214" width="22" height="78" rx="11" fill="#8EB3CC"/>
    <path d="M205 435C155 454 111 498 79 565" stroke="#5E7185" stroke-width="28" stroke-linecap="round"/>
    <path d="M325 432C380 440 433 471 480 528" stroke="#5E7185" stroke-width="28" stroke-linecap="round"/>
    <circle cx="126" cy="372" r="48" fill="#E0B980"/><path d="M82 352C101 318 151 312 178 345C166 333 133 338 120 359C106 383 93 377 82 352Z" fill="#1C2737"/>
    <rect x="78" y="418" width="115" height="150" rx="36" fill="#D4E0EC"/><rect x="68" y="495" width="126" height="22" rx="11" fill="#33465C" opacity="0.55"/>
    <circle cx="475" cy="376" r="48" fill="#C18C62"/><path d="M428 357C452 319 509 326 525 363C501 347 472 352 457 375C445 392 432 383 428 357Z" fill="#202C3A"/>
    <rect x="420" y="421" width="112" height="150" rx="34" fill="#C9D9E8"/><rect x="405" y="500" width="128" height="22" rx="11" fill="#33465C" opacity="0.55"/>
    <rect x="0" y="520" width="620" height="120" fill="#0F172A" opacity="0.12"/>
  </g>
</svg>
