<svg width="42" height="42" viewBox="0 0 42 42" fill="none" xmlns="http://www.w3.org/2000/svg"><path d="M21 5V10M21 32V37M5 21H10M32 21H37M9.7 9.7L13.2 13.2M28.8 28.8L32.3 32.3M32.3 9.7L28.8 13.2M13.2 28.8L9.7 32.3" stroke="#4EA1D3" stroke-width="2.1" stroke-linecap="round"/><path d="M15 19C15 15.7 17.7 13 21 13C24.3 13 27 15.7 27 19C27 21.1 25.9 23 24.2 24.1C23.6 24.5 23 25.3 23 26V27H19V26C19 25.3 18.4 24.5 17.8 24.1C16.1 23 15 21.1 15 19Z" stroke="#4EA1D3" stroke-width="2.1"/><path d="M18 31H24" stroke="#4EA1D3" stroke-width="2.1" stroke-linecap="round"/></svg>
